<svg xmlns="http://www.w3.org/2000/svg" version="1.1" xmlns:xlink="http://www.w3.org/1999/xlink" xmlns:svgjs="http://svgjs.dev/svgjs" viewBox="0 0 14.130380439380547 5.469943427661796"><g transform="matrix(0.7700562470986829,0,0,0.7700562470986829,5.5158933007068605,2.0307478714721614)"><g clip-path="url(#SvgjsClipPath11292)"><g clip-path="url(#SvgjsClipPath11290fd59f088-3693-4061-969b-e59ba2d82301)"><path d=" M -0.9541752466606979 -0.8758894395007337 L -4.108690607589484 -0.8758894395007337 L -4.108690607589484 2.278625921428052 L -0.9541752466606979 2.278625921428052 Z M -4.236583105408268 -1.0037819373195185 L -4.236583105408268 2.4065184192468365 L -0.8262827488419133 2.4065184192468365 L -0.8262827488419133 -1.0037819373195185 Z" fill="#769687" transform="matrix(1,0,0,1,0,0)" fill-rule="evenodd"></path></g><g clip-path="url(#SvgjsClipPath11290fd59f088-3693-4061-969b-e59ba2d82301)"><path d=" M -0.5278924978187849 -0.4496066906588212 L -3.6824078587475713 -0.4496066906588212 L -3.6824078587475713 2.704908670269965 L -0.5278924978187849 2.704908670269965 Z M -3.810300356566356 -0.5774991884776057 L -3.810300356566356 2.8328011680887495 L -0.40000000000000036 2.8328011680887495 L -0.40000000000000036 -0.5774991884776057 Z" fill="#769687" transform="matrix(1,0,0,1,0,0)" fill-rule="evenodd"></path></g><path d=" M -2.723618233441134 1.7910371821989541 C -2.7830000715463763 1.7944796075963594 -2.8428122128262943 1.7996432456924674 -2.903054657280888 1.8065280964872783 C -2.9632971017354817 1.813412947282089 -3.0222486366660486 1.822449313950278 -3.0799092620725883 1.8336371964918454 C -3.137569887479128 1.8448250790334129 -3.189636571614884 1.8581644774483586 -3.2361093144798563 1.8736553917366827 C -3.2257820382876403 1.7962008202950621 -3.2137335493967214 1.7101401853599285 -3.1999638478071 1.615473486931281 C -3.1861941462174785 1.520806788502634 -3.170272928754479 1.4226976646765814 -3.1522001954181005 1.3211461154531234 C -3.1341274620817225 1.2195945662296652 -3.1160547287453446 1.117182410656856 -3.0979819954089662 1.0139096487346952 C -3.0799092620725883 0.9106368868125349 -3.0614062255615346 0.8116671566371308 -3.0424728858758048 0.7170004582084836 C -2.999442568408238 0.4915215946784327 -2.953830431892617 0.2617396994016254 -2.905636476328942 0.027654772378061312 L -2.453818142919489 -0.03172706572718123 C -2.5002908857844615 0.1679336073223294 -2.545042415950731 0.362430642275732 -2.588072733418298 0.5517640391330265 C -2.6070060731040274 0.6326610359720524 -2.625939412789757 0.7165701550338079 -2.6448727524754867 0.803491396318293 C -2.6638060921612157 0.8904126376027782 -2.681878825497594 0.9751823630138852 -2.699090952484621 1.0578005725516135 C -2.716303079471648 1.140418782089342 -2.731793993759972 1.2204551725790167 -2.745563695349593 1.297909744020637 C -2.7593333969392146 1.3753643154622575 -2.770521279480782 1.4442128234103648 -2.779127342974295 1.5044552678649585 C -2.7360970255067283 1.5010128424675533 -2.6900545858164318 1.498861326594175 -2.6410000239034055 1.4980007202448236 C -2.5919454619903792 1.497140113895472 -2.5484848413481367 1.4967098107207963 -2.5106181619766774 1.4967098107207963 C -2.508896949277975 1.5294128519961472 -2.506315130229921 1.5616855900968225 -2.5028727048325154 1.593528025022822 C -2.49943027943511 1.6253704599488217 -2.495557550863029 1.6542007726520915 -2.4912545191162727 1.6800189631326317 C -2.4869514873695158 1.7058371536131718 -2.4835090619721107 1.7286432218709822 -2.4809272429240563 1.748437167906063 C -2.4783454238760028 1.7682311139411437 -2.476193908002624 1.7815705123560894 -2.4744726953039216 1.7884553631509004 C -2.488242396893543 1.7884553631509004 -2.5015817953084887 1.7880250599762244 -2.5144908905487586 1.7871644536268732 C -2.527399985789029 1.7863038472775217 -2.5407393842039747 1.7858735441028462 -2.5545090857935957 1.7858735441028462 C -2.607866679453379 1.7858735441028462 -2.664236395335892 1.787594756801549 -2.723618233441134 1.7910371821989541 M -1.6792673858879563 1.8400917441119806 C -1.7309037668490368 1.8486978076054938 -1.7773765097140088 1.8564432647496558 -1.8186856144828731 1.8633281155444668 C -1.8118007636880624 1.8065280964872783 -1.8049159128932517 1.7505886837794413 -1.798031062098441 1.6955098774209558 C -1.792867424002333 1.6473159218572806 -1.7881340890809005 1.5991219662936058 -1.783831057334144 1.5509280107299308 C -1.7795280255873873 1.5027340551662558 -1.7756552970153063 1.4614249503973917 -1.7722128716179009 1.427000696423338 L -1.9968311287986003 1.427000696423338 L -2.100103890720761 1.7987826393431163 C -2.13797057009222 1.8039462774392245 -2.1827221002584896 1.809540218710008 -2.23435848121957 1.8155644631554675 C -2.28599486218065 1.821588707600927 -2.334188817744325 1.8271826488717104 -2.3789403479105946 1.8323462869678184 C -2.4340191542690803 1.8392311377626294 -2.4882373542782146 1.8461159885574399 -2.541594947937998 1.8530008393522506 C -2.4727464399898906 1.6240795504247947 -2.4047585383911345 1.3986006868947438 -2.3376312431417303 1.1765642487620984 C -2.3100918399624875 1.0836187630321539 -2.281261527259218 0.9863702455554526 -2.251140305031921 0.8848186963319945 C -2.2210190828046237 0.7832671471085366 -2.1908978605773273 0.6821459010597544 -2.16077663835003 0.5814549581856476 C -2.1306554161227336 0.4807640153115411 -2.1018251034194635 0.38394580100951553 -2.074285700240221 0.29100031527957104 C -2.046746297060978 0.19805482954962642 -2.0226493192791404 0.11285480096384382 -2.0019947668947085 0.0354002295222232 C -1.8849523033829263 0.026794166028709918 -1.7657583239977659 0.01646688983649386 -1.6444128287392272 0.004418400945574996 C -1.5230673334806886 -0.007630087945343637 -1.4047339604448792 -0.023981608583019013 -1.2894127096317998 -0.04463616096745115 C -1.2945763477279078 0.010442645391034545 -1.3001702889986917 0.07886085016446599 -1.3061945334441507 0.16061845335284328 C -1.3122187778896106 0.2423760565412203 -1.317812719160394 0.3314488136990838 -1.322976357256502 0.42783672482643376 C -1.32813999535261 0.5242246359537837 -1.3333036334487183 0.6249155788278903 -1.3384672715448263 0.7299095534487536 C -1.3436309096409342 0.834903528069617 -1.3487945477370422 0.9381762899917775 -1.3539581858331504 1.0397278392152356 C -1.3625642493266639 1.2772551916362052 -1.3720309191695286 1.5294128519961472 -1.3823581953617443 1.7962008202950621 C -1.433994576322825 1.8048068837885758 -1.4856309572839053 1.8116917345833863 -1.5372673382449853 1.8168553726794943 C -1.580297655712552 1.8237402234743052 -1.6276310049268758 1.8314856806184672 -1.6792673858879563 1.8400917441119806 M -1.9348674716453038 1.1688187916179364 C -1.9279826208504933 1.1688187916179364 -1.9155038287848989 1.1683884884432607 -1.8974310954485207 1.1675278820939095 C -1.8793583621121426 1.166667275744558 -1.8604250224264132 1.1658066693952067 -1.8406310763913323 1.1649460630458552 C -1.8208371303562514 1.164085456696504 -1.8023340938451977 1.1632248503471525 -1.785121966858171 1.1623642439978015 C -1.7679098398711441 1.16150363764845 -1.7558613509802254 1.160212728124423 -1.7489765001854147 1.1584915154257203 C -1.7489765001854147 1.1481642392335043 -1.7476855906613875 1.1305218090718019 -1.7451037716133335 1.105564224940613 C -1.7425219525652798 1.0806066408094241 -1.739940133517226 1.0522066312808298 -1.7373583144691718 1.0203641963548304 C -1.7347764954211176 0.9885217614288309 -1.7317643731983878 0.9536672042801015 -1.7283219478009826 0.9158005249086427 C -1.7248795224035773 0.8779338455371839 -1.7214370970061716 0.8409277725150764 -1.7179946716087664 0.8047823058423201 C -1.7111098208139557 0.7170004582084836 -1.7025037573204425 0.6223337597798363 -1.6921764811282263 0.5207822105563783 L -1.6766855668399023 0.2961639533756791 L -1.7154128525607124 0.2987457724237329 L -1.7747946906659549 0.5207822105563783 L -1.9348674716453038 1.1688187916179364" fill="#769687" transform="matrix(1,0,0,1,0,0)" fill-rule="nonzero"></path></g><g><path d=" M 0.81 0.1559999999999998 C 0.81 0.09899999999999975 0.645 -2.220446049250313e-16 0.585 -2.220446049250313e-16 C 0.519 -2.220446049250313e-16 0.34800000000000003 0.07649999999999979 0.3255 0.15149999999999986 C 0.2955 0.25349999999999984 0.2205 0.5534999999999999 0.168 0.7319999999999998 C 0.14250000000000002 0.8189999999999998 0.081 0.8849999999999998 0.0825 0.8849999999999998 C 0.0195 0.8939999999999998 -0.0825 0.9284999999999999 -0.0825 0.9509999999999998 C -0.0825 0.9854999999999998 -0.0465 1.0649999999999997 -0.0075 1.0649999999999997 C 0.027 1.0649999999999997 0.0915 1.005 0.1335 1.005 C 0.258 1.005 0.48 1.0649999999999997 0.549 1.0649999999999997 C 0.5925 1.0649999999999997 0.66 0.9314999999999998 0.66 0.8969999999999998 C 0.66 0.8849999999999998 0.6495 0.8744999999999998 0.6375000000000001 0.8744999999999998 C 0.6135 0.8744999999999998 0.591 0.8924999999999998 0.522 0.8924999999999998 C 0.4185 0.8924999999999998 0.2475 0.8894999999999998 0.195 0.8894999999999998 C 0.195 0.8894999999999998 0.318 0.8384999999999998 0.3405 0.7634999999999998 C 0.4005 0.5564999999999998 0.4575 0.31499999999999984 0.4845 0.22499999999999976 C 0.5025000000000001 0.16349999999999976 0.5640000000000001 0.10799999999999976 0.6 0.10799999999999976 C 0.624 0.10799999999999976 0.6525 0.13349999999999984 0.6525 0.1499999999999998 C 0.6525 0.19049999999999978 0.6285000000000001 0.25049999999999983 0.612 0.3074999999999998 C 0.606 0.3254999999999998 0.603 0.33599999999999985 0.603 0.3464999999999998 C 0.603 0.37349999999999983 0.672 0.4079999999999998 0.6960000000000001 0.4079999999999998 C 0.708 0.4079999999999998 0.7155 0.39749999999999985 0.7245 0.3839999999999998 C 0.762 0.3224999999999998 0.81 0.1994999999999998 0.81 0.1559999999999998 M 1.5150000000000001 0.7784999999999997 C 1.5150000000000001 0.7784999999999997 1.536 0.7439999999999998 1.536 0.7259999999999998 C 1.536 0.7079999999999997 1.5030000000000001 0.6839999999999998 1.482 0.6839999999999998 C 1.464 0.6839999999999998 1.4505 0.7109999999999999 1.4505 0.7109999999999999 C 1.4505 0.7109999999999999 1.38 0.8579999999999999 1.2734999999999999 0.8579999999999999 C 1.2585000000000002 0.8579999999999999 1.2465 0.8564999999999998 1.2345 0.8519999999999999 C 1.2825 0.7529999999999999 1.3125 0.6419999999999998 1.3125 0.5624999999999998 C 1.3125 0.4694999999999998 1.149 0.35999999999999976 1.0335 0.35999999999999976 C 0.873 0.35999999999999976 0.7245 0.6494999999999997 0.7245 0.8579999999999999 C 0.7245 0.9659999999999999 0.897 1.0649999999999997 1.002 1.0649999999999997 C 1.065 1.0649999999999997 1.1235 1.0199999999999998 1.173 0.9539999999999998 C 1.194 0.9554999999999998 1.215 0.9554999999999998 1.233 0.9554999999999998 C 1.4235 0.9554999999999998 1.5150000000000001 0.7784999999999997 1.5150000000000001 0.7784999999999997 M 0.9045 0.8939999999999998 C 0.9045 0.7259999999999998 1.0275 0.47099999999999986 1.104 0.47099999999999986 C 1.134 0.47099999999999986 1.1745 0.4979999999999998 1.1745 0.5309999999999998 C 1.1745 0.6029999999999998 1.1445 0.7049999999999998 1.107 0.7904999999999998 C 1.0725 0.7964999999999998 1.0110000000000001 0.8579999999999999 1.0110000000000001 0.8879999999999998 C 1.0110000000000001 0.9014999999999999 1.0185 0.9119999999999998 1.0305 0.9209999999999998 C 1.0095 0.9464999999999998 0.9885 0.9614999999999998 0.972 0.9614999999999998 C 0.942 0.9614999999999998 0.9045 0.9314999999999998 0.9045 0.8939999999999998 M 1.978469970703125 1.0649999999999997 C 2.086469970703125 1.0649999999999997 2.173469970703125 0.9284999999999999 2.257469970703125 0.7784999999999997 C 2.257469970703125 0.7784999999999997 2.2769699707031252 0.7439999999999998 2.2769699707031252 0.7259999999999998 C 2.2769699707031252 0.7079999999999997 2.245469970703125 0.6839999999999998 2.225969970703125 0.6839999999999998 C 2.2064699707031252 0.6839999999999998 2.192969970703125 0.7109999999999999 2.192969970703125 0.7109999999999999 C 2.119469970703125 0.8459999999999999 2.036969970703125 0.9614999999999998 1.9934699707031251 0.9614999999999998 C 1.978469970703125 0.9614999999999998 1.952969970703125 0.9389999999999998 1.952969970703125 0.9194999999999998 C 1.952969970703125 0.8399999999999999 2.0534699707031248 0.5144999999999998 2.0669699707031253 0.4754999999999998 C 2.069969970703125 0.4664999999999998 2.072969970703125 0.44999999999999984 2.072969970703125 0.4394999999999998 C 2.072969970703125 0.41249999999999976 1.9739699707031249 0.35999999999999976 1.943969970703125 0.35999999999999976 C 1.931969970703125 0.35999999999999976 1.918469970703125 0.3674999999999998 1.912469970703125 0.38849999999999985 C 1.892969970703125 0.4514999999999998 1.843469970703125 0.6449999999999998 1.805969970703125 0.7664999999999997 C 1.792469970703125 0.8144999999999998 1.681469970703125 0.9464999999999998 1.621469970703125 0.9464999999999998 C 1.607969970703125 0.9464999999999998 1.580969970703125 0.9239999999999998 1.580969970703125 0.9044999999999999 C 1.580969970703125 0.8354999999999998 1.676969970703125 0.5144999999999998 1.687469970703125 0.4754999999999998 C 1.690469970703125 0.4664999999999998 1.6934699707031249 0.44999999999999984 1.6934699707031249 0.4394999999999998 C 1.6934699707031249 0.41249999999999976 1.5944699707031251 0.35999999999999976 1.565969970703125 0.35999999999999976 C 1.552469970703125 0.35999999999999976 1.541969970703125 0.3674999999999998 1.532969970703125 0.38849999999999985 C 1.502969970703125 0.48299999999999976 1.400969970703125 0.8489999999999998 1.400969970703125 0.9194999999999998 C 1.400969970703125 0.9824999999999998 1.517969970703125 1.0649999999999997 1.595969970703125 1.0649999999999997 C 1.6529699707031251 1.0649999999999997 1.795469970703125 0.9584999999999998 1.795469970703125 0.9584999999999998 C 1.805969970703125 1.0019999999999998 1.9109699707031251 1.0649999999999997 1.978469970703125 1.0649999999999997 M 2.449497802734375 0.29249999999999976 C 2.497497802734375 0.29249999999999976 2.533497802734375 0.19499999999999984 2.533497802734375 0.1379999999999998 C 2.533497802734375 0.10049999999999981 2.467497802734375 0.07499999999999984 2.429997802734375 0.07499999999999984 C 2.380497802734375 0.07499999999999984 2.345997802734375 0.17249999999999976 2.345997802734375 0.22949999999999982 C 2.345997802734375 0.2669999999999998 2.411997802734375 0.29249999999999976 2.449497802734375 0.29249999999999976 M 2.141997802734375 0.9344999999999998 C 2.141997802734375 1.0019999999999998 2.276997802734375 1.0649999999999997 2.344497802734375 1.0649999999999997 C 2.452497802734375 1.0649999999999997 2.542497802734375 0.9284999999999999 2.623497802734375 0.7784999999999997 C 2.623497802734375 0.7784999999999997 2.644497802734375 0.7439999999999998 2.644497802734375 0.7259999999999998 C 2.644497802734375 0.7079999999999997 2.612997802734375 0.6839999999999998 2.593497802734375 0.6839999999999998 C 2.573997802734375 0.6839999999999998 2.561997802734375 0.7109999999999999 2.561997802734375 0.7109999999999999 C 2.485497802734375 0.8459999999999999 2.404497802734375 0.9614999999999998 2.360997802734375 0.9614999999999998 C 2.345997802734375 0.9614999999999998 2.321997802734375 0.9389999999999998 2.321997802734375 0.9194999999999998 C 2.321997802734375 0.8144999999999998 2.443497802734375 0.47699999999999976 2.443497802734375 0.4424999999999998 C 2.443497802734375 0.4139999999999998 2.341497802734375 0.35999999999999976 2.323497802734375 0.35999999999999976 C 2.300997802734375 0.35999999999999976 2.279997802734375 0.37049999999999983 2.273997802734375 0.39149999999999985 C 2.248497802734375 0.4844999999999998 2.141997802734375 0.8639999999999999 2.141997802734375 0.9344999999999998 M 2.79451171875 0.5504999999999998 C 2.79451171875 0.6314999999999998 2.82901171875 0.7439999999999998 2.82901171875 0.8519999999999999 C 2.82901171875 0.9059999999999998 2.79001171875 0.9584999999999998 2.73901171875 0.9584999999999998 C 2.69851171875 0.9584999999999998 2.65051171875 0.8804999999999998 2.65051171875 0.8054999999999999 C 2.65051171875 0.7559999999999998 2.79451171875 0.5504999999999998 2.79451171875 0.5504999999999998 M 2.95801171875 0.9359999999999998 C 2.95801171875 0.9359999999999998 3.00451171875 0.8714999999999998 3.00451171875 0.8144999999999998 C 3.00451171875 0.7019999999999997 2.94751171875 0.5714999999999998 2.94751171875 0.4259999999999998 C 2.94751171875 0.3989999999999998 2.85751171875 0.3404999999999998 2.83801171875 0.3404999999999998 C 2.81701171875 0.3404999999999998 2.79901171875 0.3584999999999998 2.79001171875 0.3749999999999998 C 2.73901171875 0.45899999999999985 2.59501171875 0.6794999999999998 2.59501171875 0.6794999999999998 C 2.59501171875 0.6794999999999998 2.47051171875 0.7379999999999998 2.47051171875 0.8114999999999998 C 2.47051171875 0.9044999999999999 2.62801171875 1.0649999999999997 2.77801171875 1.0649999999999997 C 3.00301171875 1.0649999999999997 3.14851171875 0.9284999999999999 3.23101171875 0.7784999999999997 C 3.23101171875 0.7784999999999997 3.25051171875 0.7439999999999998 3.25051171875 0.7259999999999998 C 3.25051171875 0.7079999999999997 3.21901171875 0.6839999999999998 3.19951171875 0.6839999999999998 C 3.18001171875 0.6839999999999998 3.16651171875 0.7109999999999999 3.16651171875 0.7109999999999999 C 3.09301171875 0.8459999999999999 3.02251171875 0.9059999999999998 2.95801171875 0.9359999999999998 M 3.328534423828125 0.7259999999999998 C 3.342034423828125 0.6554999999999997 3.423034423828125 0.47699999999999976 3.481534423828125 0.47699999999999976 C 3.502534423828125 0.47699999999999976 3.526534423828125 0.4934999999999998 3.526534423828125 0.5069999999999998 C 3.526534423828125 0.5639999999999998 3.460534423828125 0.7259999999999998 3.328534423828125 0.7259999999999998 M 3.310534423828125 0.8504999999999998 C 3.310534423828125 0.8144999999999998 3.318034423828125 0.7934999999999999 3.318034423828125 0.7934999999999999 C 3.318034423828125 0.7934999999999999 3.391534423828125 0.8144999999999998 3.459034423828125 0.8144999999999998 C 3.556534423828125 0.8144999999999998 3.6525344238281248 0.5894999999999998 3.6525344238281248 0.5069999999999998 C 3.6525344238281248 0.44999999999999984 3.507034423828125 0.35999999999999976 3.438034423828125 0.35999999999999976 C 3.298534423828125 0.35999999999999976 3.130534423828125 0.6884999999999999 3.130534423828125 0.8579999999999999 C 3.130534423828125 0.9584999999999998 3.277534423828125 1.0649999999999997 3.387034423828125 1.0649999999999997 C 3.514534423828125 1.0649999999999997 3.615034423828125 0.9794999999999998 3.675034423828125 0.8999999999999998 C 3.675034423828125 0.8999999999999998 3.700534423828125 0.8669999999999998 3.700534423828125 0.8489999999999998 C 3.700534423828125 0.8309999999999998 3.669034423828125 0.8024999999999998 3.648034423828125 0.8024999999999998 C 3.630034423828125 0.8024999999999998 3.610534423828125 0.8324999999999998 3.610534423828125 0.8324999999999998 C 3.556534423828125 0.9059999999999998 3.486034423828125 0.9584999999999998 3.415534423828125 0.9584999999999998 C 3.373534423828125 0.9584999999999998 3.310534423828125 0.9029999999999998 3.310534423828125 0.8504999999999998 M 5.242455322265625 0.6059999999999999 C 5.261955322265625 0.6059999999999999 5.285955322265625 0.5474999999999998 5.285955322265625 0.5324999999999999 C 5.285955322265625 0.5234999999999999 5.278455322265625 0.5189999999999998 5.272455322265625 0.5189999999999998 L 5.2199553222656245 0.5189999999999998 C 5.249955322265625 0.4079999999999998 5.284455322265625 0.29549999999999976 5.309955322265625 0.2114999999999998 C 5.321955322265625 0.17099999999999982 5.387955322265626 0.09749999999999981 5.387955322265626 0.08399999999999985 C 5.387955322265626 0.06149999999999978 5.311455322265625 -2.220446049250313e-16 5.285955322265625 -2.220446049250313e-16 C 5.276955322265625 -2.220446049250313e-16 5.240955322265625 0.028499999999999748 5.207955322265625 0.06149999999999978 C 5.189955322265625 0.04499999999999971 5.129955322265625 -2.220446049250313e-16 5.107455322265625 -2.220446049250313e-16 C 5.038455322265625 -2.220446049250313e-16 4.877955322265625 0.0824999999999998 4.841955322265625 0.1409999999999998 C 4.811955322265625 0.19049999999999978 4.7294553222656255 0.3554999999999998 4.646955322265625 0.5189999999999998 L 4.462455322265625 0.5189999999999998 C 4.442955322265625 0.5189999999999998 4.417455322265625 0.5774999999999998 4.417455322265625 0.5924999999999998 C 4.417455322265625 0.6014999999999998 4.424955322265625 0.6059999999999999 4.432455322265625 0.6059999999999999 L 4.604955322265625 0.6059999999999999 C 4.543455322265625 0.7289999999999999 4.486455322265625 0.8399999999999999 4.459455322265625 0.8864999999999998 C 4.436955322265625 0.9254999999999998 4.402455322265625 0.9524999999999998 4.381455322265625 0.9524999999999998 C 4.346955322265625 0.9524999999999998 4.238955322265625 0.7964999999999998 4.204455322265625 0.7304999999999998 C 4.199955322265625 0.7214999999999998 4.192455322265625 0.7154999999999998 4.180455322265625 0.7154999999999998 C 4.147455322265625 0.7154999999999998 4.060455322265625 0.7874999999999999 4.060455322265625 0.8114999999999998 C 4.060455322265625 0.8564999999999998 4.282455322265625 1.0649999999999997 4.367955322265625 1.0649999999999997 C 4.448955322265625 1.0649999999999997 4.598955322265625 0.9719999999999999 4.630455322265625 0.9209999999999998 C 4.660455322265625 0.8714999999999998 4.721955322265625 0.7439999999999998 4.786455322265625 0.6059999999999999 L 5.012955322265625 0.6059999999999999 C 4.975455322265625 0.7469999999999999 4.946955322265625 0.8684999999999998 4.946955322265625 0.9089999999999998 C 4.946955322265625 0.9599999999999999 5.029455322265625 1.0649999999999997 5.047455322265625 1.0649999999999997 C 5.072955322265625 1.0649999999999997 5.177955322265625 0.9974999999999998 5.177955322265625 0.9749999999999999 C 5.177955322265625 0.9614999999999998 5.134455322265625 0.9179999999999998 5.134455322265625 0.8984999999999999 C 5.134455322265625 0.8519999999999999 5.161455322265625 0.7364999999999998 5.195955322265625 0.6059999999999999 M 5.153955322265625 0.13049999999999984 C 5.119455322265625 0.23549999999999982 5.075955322265625 0.37949999999999984 5.036955322265625 0.5189999999999998 L 4.826955322265625 0.5189999999999998 C 4.904955322265625 0.35099999999999976 4.981455322265625 0.18599999999999983 5.008455322265625 0.1409999999999998 C 5.018955322265625 0.12449999999999983 5.038455322265625 0.11099999999999977 5.056455322265625 0.11099999999999977 C 5.072955322265625 0.11099999999999977 5.140455322265625 0.12749999999999984 5.153955322265625 0.13049999999999984 M 5.992437744140625 0.14549999999999985 C 5.992437744140625 0.14549999999999985 5.279937744140625 0.9059999999999998 5.279937744140625 0.9374999999999998 C 5.279937744140625 0.9719999999999999 5.360937744140625 1.0649999999999997 5.399937744140625 1.0649999999999997 C 5.468937744140625 1.0649999999999997 5.702937744140625 1.005 5.803437744140625 1.005 C 5.846937744140625 1.005 5.953437744140625 1.0649999999999997 5.971437744140625 1.0649999999999997 C 5.987937744140625 1.0649999999999997 6.025437744140625 1.0079999999999998 6.025437744140625 0.9944999999999998 C 6.025437744140625 0.9674999999999998 5.909937744140625 0.8474999999999998 5.872437744140625 0.8474999999999998 C 5.773437744140625 0.8474999999999998 5.462937744140625 0.9494999999999998 5.462937744140625 0.9494999999999998 C 5.462937744140625 0.9494999999999998 6.202437744140625 0.16049999999999975 6.202437744140625 0.14549999999999985 C 6.202437744140625 0.11099999999999977 6.137937744140625 0.014999999999999902 6.098937744140625 0.014999999999999902 L 5.657937744140625 0.014999999999999902 C 5.602437744140625 0.014999999999999902 5.441937744140625 0.15149999999999986 5.441937744140625 0.19649999999999979 C 5.441937744140625 0.2519999999999998 5.546937744140625 0.3779999999999998 5.573937744140625 0.3779999999999998 C 5.594937744140625 0.3779999999999998 5.6429377441406245 0.33599999999999985 5.6429377441406245 0.31799999999999984 C 5.6429377441406245 0.30149999999999977 5.617437744140625 0.24599999999999977 5.617437744140625 0.2144999999999998 C 5.617437744140625 0.17399999999999982 5.681937744140625 0.11549999999999983 5.720937744140625 0.11549999999999983 C 5.839437744140625 0.11549999999999983 5.992437744140625 0.14549999999999985 5.992437744140625 0.14549999999999985 M 6.394447265625 0.9584999999999998 C 6.331447265625 0.9584999999999998 6.271447265625 0.8924999999999998 6.271447265625 0.8444999999999998 C 6.271447265625 0.7484999999999998 6.418447265625 0.6254999999999998 6.550447265625 0.5369999999999998 C 6.571447265625 0.5234999999999999 6.584947265625 0.5099999999999998 6.584947265625 0.4934999999999998 C 6.584947265625 0.46199999999999986 6.527947265625 0.4199999999999998 6.479947265625 0.4199999999999998 C 6.473947265625 0.4199999999999998 6.469447265625 0.4199999999999998 6.463447265625 0.42149999999999976 C 6.452947265625 0.42149999999999976 6.401947265625 0.3674999999999998 6.401947265625 0.32099999999999984 C 6.401947265625 0.22799999999999976 6.551947265625 0.10049999999999981 6.596947265625 0.10049999999999981 C 6.622447265625 0.10049999999999981 6.656947265625 0.12749999999999984 6.656947265625 0.14849999999999985 C 6.656947265625 0.17099999999999982 6.634447265625 0.2114999999999998 6.610447265625 0.2609999999999998 C 6.605947265625 0.2699999999999998 6.604447265625 0.2759999999999998 6.604447265625 0.28349999999999975 C 6.604447265625 0.3029999999999998 6.665947265625 0.3464999999999998 6.689947265625 0.3464999999999998 C 6.697447265625 0.3464999999999998 6.701947265625 0.3434999999999998 6.712447265625 0.3314999999999998 C 6.752947265625 0.28049999999999986 6.799447265625 0.19799999999999984 6.799447265625 0.1649999999999998 C 6.799447265625 0.09749999999999981 6.655447265625 -2.220446049250313e-16 6.547447265625 -2.220446049250313e-16 C 6.442447265625 -2.220446049250313e-16 6.224947265625 0.17999999999999983 6.224947265625 0.29249999999999976 C 6.224947265625 0.37349999999999983 6.332947265625 0.44999999999999984 6.367447265625 0.47099999999999986 C 6.251947265625 0.5474999999999998 6.095947265625 0.6764999999999999 6.095947265625 0.8069999999999998 C 6.095947265625 0.9074999999999998 6.271447265625 1.0649999999999997 6.431947265625 1.0649999999999997 C 6.476947265625 1.0649999999999997 6.556447265625 1.0514999999999999 6.584947265625 1.0244999999999997 C 6.632947265625 0.9794999999999998 6.664447265625 0.9209999999999998 6.695947265625 0.8684999999999998 C 6.704947265625 0.8534999999999998 6.710947265625 0.8399999999999999 6.710947265625 0.8279999999999998 C 6.710947265625 0.8099999999999998 6.652447265625 0.7649999999999998 6.634447265625 0.7649999999999998 C 6.619447265625 0.7649999999999998 6.611947265625 0.7739999999999998 6.601447265625 0.7859999999999998 C 6.530947265625 0.8744999999999998 6.460447265625 0.9584999999999998 6.394447265625 0.9584999999999998 M 6.99446044921875 0.3374999999999998 C 6.99446044921875 0.32399999999999984 7.01096044921875 0.2819999999999998 7.01846044921875 0.27449999999999986 C 7.10096044921875 0.19199999999999984 7.2089604492187505 0.09899999999999975 7.23446044921875 0.09899999999999975 C 7.24646044921875 0.09899999999999975 7.26146044921875 0.11549999999999983 7.26146044921875 0.13349999999999984 C 7.26146044921875 0.20999999999999985 7.05296044921875 0.8864999999999998 7.05296044921875 0.9989999999999998 C 7.05296044921875 1.041 7.16996044921875 1.0649999999999997 7.19696044921875 1.0649999999999997 C 7.21796044921875 1.0649999999999997 7.22096044921875 1.0529999999999997 7.22396044921875 1.0364999999999998 C 7.27346044921875 0.7769999999999998 7.34696044921875 0.47699999999999976 7.41296044921875 0.28949999999999976 C 7.43096044921875 0.23849999999999982 7.56146044921875 0.12599999999999978 7.60196044921875 0.12599999999999978 C 7.63946044921875 0.12599999999999978 7.67096044921875 0.16649999999999976 7.67096044921875 0.19199999999999984 C 7.67096044921875 0.24149999999999983 7.47746044921875 0.8954999999999999 7.47746044921875 1.0004999999999997 C 7.47746044921875 1.0334999999999999 7.57196044921875 1.0649999999999997 7.61246044921875 1.0649999999999997 C 7.63346044921875 1.0649999999999997 7.63646044921875 1.0529999999999997 7.63946044921875 1.0364999999999998 C 7.69346044921875 0.7724999999999997 7.76546044921875 0.4544999999999998 7.83146044921875 0.27449999999999986 C 7.85696044921875 0.2024999999999998 7.97696044921875 0.12899999999999978 8.01296044921875 0.12899999999999978 C 8.04896044921875 0.12899999999999978 8.07446044921875 0.16649999999999976 8.07446044921875 0.19199999999999984 C 8.07446044921875 0.24149999999999983 7.89446044921875 0.8174999999999998 7.89446044921875 0.9224999999999999 C 7.89446044921875 0.9734999999999998 7.9814604492187495 1.0649999999999997 7.99796044921875 1.0649999999999997 C 8.02346044921875 1.0649999999999997 8.11796044921875 0.9974999999999998 8.11796044921875 0.9749999999999999 C 8.11796044921875 0.9614999999999998 8.07446044921875 0.9179999999999998 8.07446044921875 0.8984999999999999 C 8.07446044921875 0.8174999999999998 8.26046044921875 0.21599999999999986 8.26046044921875 0.14549999999999985 C 8.26046044921875 0.07649999999999979 8.12546044921875 -2.220446049250313e-16 8.05346044921875 -2.220446049250313e-16 C 7.99796044921875 -2.220446049250313e-16 7.90346044921875 0.0824999999999998 7.85696044921875 0.12749999999999984 C 7.83146044921875 0.07199999999999984 7.70546044921875 -2.220446049250313e-16 7.63946044921875 -2.220446049250313e-16 C 7.5839604492187505 -2.220446049250313e-16 7.48796044921875 0.08699999999999986 7.44296044921875 0.12899999999999978 C 7.42796044921875 0.07049999999999979 7.31246044921875 -2.220446049250313e-16 7.25096044921875 -2.220446049250313e-16 C 7.1849604492187495 -2.220446049250313e-16 7.0214604492187505 0.11249999999999982 6.92846044921875 0.17849999999999977 C 6.89546044921875 0.2024999999999998 6.82196044921875 0.32699999999999985 6.82196044921875 0.36599999999999977 C 6.82196044921875 0.40349999999999986 6.92096044921875 0.5504999999999998 6.95096044921875 0.5504999999999998 C 6.97496044921875 0.5504999999999998 7.03196044921875 0.5159999999999998 7.03196044921875 0.4949999999999998 C 7.03196044921875 0.47399999999999975 6.99446044921875 0.3719999999999998 6.99446044921875 0.3374999999999998" fill="#212121" fill-rule="nonzero"></path></g><g><path d=" M 0.4032692307692308 1.8290192307692308 L 0.4032692307692308 1.5163269230769232 L 0.2682692307692308 1.7569038461538462 L 0.23653846153846156 1.7569038461538462 L 0.10096153846153848 1.5163269230769232 L 0.10096153846153848 1.8290192307692308 L 0.049038461538461545 1.8290192307692308 L 0.049038461538461545 1.419403846153846 L 0.10384615384615385 1.419403846153846 L 0.25211538461538463 1.6853653846153847 L 0.4009615384615385 1.419403846153846 L 0.45519230769230773 1.419403846153846 L 0.45519230769230773 1.8290192307692308 L 0.4032692307692308 1.8290192307692308 M 0.6715680401141828 1.8347884615384615 Q 0.6375295785757212 1.8347884615384615 0.6098372708834136 1.8223846153846155 Q 0.5821449631911059 1.8099807692307692 0.5619526554987981 1.7883461538461538 Q 0.5417603478064905 1.7667115384615384 0.530798809344952 1.7384423076923077 Q 0.5198372708834136 1.710173076923077 0.5198372708834136 1.6790192307692307 Q 0.5198372708834136 1.6472884615384615 0.530798809344952 1.6190192307692308 Q 0.5417603478064905 1.5907499999999999 0.5619526554987981 1.5691153846153847 Q 0.5821449631911059 1.5474807692307693 0.6101257324218751 1.535076923076923 Q 0.6381065016526444 1.522673076923077 0.6721449631911058 1.522673076923077 Q 0.7056065016526443 1.522673076923077 0.733298809344952 1.535076923076923 Q 0.7609911170372596 1.5474807692307693 0.781471886268029 1.5691153846153847 Q 0.8019526554987981 1.5907499999999999 0.8129141939603366 1.6190192307692308 Q 0.8238757324218751 1.6472884615384615 0.8238757324218751 1.6790192307692307 Q 0.8238757324218751 1.710173076923077 0.8129141939603366 1.7384423076923077 Q 0.8019526554987981 1.7667115384615384 0.7817603478064905 1.7883461538461538 Q 0.7615680401141828 1.8099807692307692 0.7335872708834136 1.8223846153846155 Q 0.7056065016526443 1.8347884615384615 0.6715680401141828 1.8347884615384615 M 0.5717603478064904 1.679596153846154 Q 0.5717603478064904 1.71075 0.5853180401141828 1.7361346153846153 Q 0.5988757324218751 1.7615192307692307 0.621375732421875 1.7762307692307693 Q 0.6438757324218751 1.7909423076923077 0.6715680401141828 1.7909423076923077 Q 0.6992603478064905 1.7909423076923077 0.722048809344952 1.7759423076923078 Q 0.7448372708834136 1.7609423076923076 0.7583949631911059 1.7352692307692308 Q 0.7719526554987981 1.709596153846154 0.7719526554987981 1.6784423076923076 Q 0.7719526554987981 1.6472884615384615 0.7583949631911059 1.6219038461538462 Q 0.7448372708834136 1.5965192307692309 0.722048809344952 1.5815192307692307 Q 0.6992603478064905 1.5665192307692308 0.6715680401141828 1.5665192307692308 Q 0.6438757324218751 1.5665192307692308 0.621375732421875 1.5818076923076922 Q 0.5988757324218751 1.5970961538461539 0.5853180401141828 1.6224807692307692 Q 0.5717603478064904 1.6478653846153846 0.5717603478064904 1.679596153846154 M 1.146952092097356 1.8290192307692308 L 1.096182861328125 1.8290192307692308 L 1.096182861328125 1.6605576923076923 Q 1.096182861328125 1.6126730769230768 1.0814713228665866 1.5904615384615384 Q 1.0667597844050483 1.56825 1.0367597844050482 1.56825 Q 1.0159905536358174 1.56825 0.9955097844050482 1.5786346153846154 Q 0.975029015174279 1.5890192307692308 0.9591636305588943 1.6066153846153846 Q 0.9432982459435097 1.6242115384615385 0.9363751690204328 1.6472884615384615 L 0.9363751690204328 1.8290192307692308 L 0.885605938251202 1.8290192307692308 L 0.885605938251202 1.5278653846153847 L 0.9317597844050481 1.5278653846153847 L 0.9317597844050481 1.5924807692307692 Q 0.9438751690204328 1.5711346153846153 0.9629136305588943 1.5555576923076924 Q 0.9819520920973559 1.5399807692307692 1.0061828613281252 1.531326923076923 Q 1.0304136305588942 1.522673076923077 1.0569520920973559 1.522673076923077 Q 1.0829136305588944 1.522673076923077 1.1005097844050482 1.5321923076923076 Q 1.118105938251202 1.5417115384615385 1.128202092097356 1.5587307692307693 Q 1.1382982459435098 1.57575 1.1426251690204328 1.598826923076923 Q 1.146952092097356 1.6219038461538462 1.146952092097356 1.6490192307692308 L 1.146952092097356 1.8290192307692308 M 1.5340776179387023 1.8347884615384615 Q 1.4971545410156253 1.8347884615384615 1.4683083871694715 1.816326923076923 Q 1.4394622333233176 1.7978653846153847 1.4227314640925484 1.7695961538461538 L 1.4227314640925484 1.9519038461538463 L 1.3719622333233177 1.9519038461538463 L 1.3719622333233177 1.5278653846153847 L 1.4169622333233176 1.5278653846153847 L 1.4169622333233176 1.584403846153846 Q 1.434846848707933 1.5567115384615384 1.4636930025540869 1.5396923076923077 Q 1.4925391564002408 1.522673076923077 1.5265776179387023 1.522673076923077 Q 1.5577314640925484 1.522673076923077 1.583693002554087 1.5353653846153845 Q 1.6096545410156253 1.5480576923076923 1.6286930025540869 1.5699807692307692 Q 1.6477314640925484 1.5919038461538462 1.6584045410156254 1.6198846153846154 Q 1.6690776179387024 1.6478653846153846 1.6690776179387024 1.6784423076923076 Q 1.6690776179387024 1.7211346153846154 1.6520583871694714 1.7569038461538462 Q 1.6350391564002407 1.792673076923077 1.6044622333233176 1.8137307692307691 Q 1.5738853102463946 1.8347884615384615 1.5340776179387023 1.8347884615384615 M 1.5185006948617792 1.7909423076923077 Q 1.5410006948617792 1.7909423076923077 1.5591737717848562 1.781423076923077 Q 1.5773468487079332 1.771903846153846 1.5903276179387023 1.7560384615384614 Q 1.6033083871694715 1.740173076923077 1.6102314640925486 1.7199807692307691 Q 1.6171545410156254 1.6997884615384615 1.6171545410156254 1.6784423076923076 Q 1.6171545410156254 1.6559423076923077 1.6093660794771638 1.63575 Q 1.6015776179387022 1.6155576923076924 1.5874430025540869 1.5999807692307693 Q 1.5733083871694715 1.584403846153846 1.5545583871694715 1.5754615384615385 Q 1.5358083871694714 1.5665192307692308 1.5138853102463945 1.5665192307692308 Q 1.5000391564002407 1.5665192307692308 1.4853276179387023 1.5717115384615385 Q 1.4706160794771639 1.5769038461538463 1.457346848707933 1.586423076923077 Q 1.4440776179387023 1.5959423076923076 1.434846848707933 1.6080576923076924 Q 1.4256160794771637 1.6201730769230769 1.4227314640925484 1.6340192307692307 L 1.4227314640925484 1.7199807692307691 Q 1.4313853102463945 1.739596153846154 1.4458083871694716 1.75575 Q 1.4602314640925484 1.771903846153846 1.47926992563101 1.781423076923077 Q 1.4983083871694716 1.7909423076923077 1.5185006948617792 1.7909423076923077 M 1.8629156024639428 1.8347884615384615 Q 1.8288771409254811 1.8347884615384615 1.8011848332331735 1.8223846153846155 Q 1.7734925255408658 1.8099807692307692 1.7533002178485582 1.7883461538461538 Q 1.7331079101562503 1.7667115384615384 1.722146371694712 1.7384423076923077 Q 1.7111848332331736 1.710173076923077 1.7111848332331736 1.6790192307692307 Q 1.7111848332331736 1.6472884615384615 1.722146371694712 1.6190192307692308 Q 1.7331079101562503 1.5907499999999999 1.7533002178485582 1.5691153846153847 Q 1.7734925255408658 1.5474807692307693 1.801473294771635 1.535076923076923 Q 1.8294540640024044 1.522673076923077 1.8634925255408659 1.522673076923077 Q 1.8969540640024043 1.522673076923077 1.924646371694712 1.535076923076923 Q 1.9523386793870197 1.5474807692307693 1.972819448617789 1.5691153846153847 Q 1.9933002178485582 1.5907499999999999 2.004261756310097 1.6190192307692308 Q 2.0152232947716353 1.6472884615384615 2.0152232947716353 1.6790192307692307 Q 2.0152232947716353 1.710173076923077 2.004261756310097 1.7384423076923077 Q 1.9933002178485582 1.7667115384615384 1.9731079101562505 1.7883461538461538 Q 1.9529156024639427 1.8099807692307692 1.9249348332331735 1.8223846153846155 Q 1.8969540640024043 1.8347884615384615 1.8629156024639428 1.8347884615384615 M 1.7631079101562503 1.679596153846154 Q 1.7631079101562503 1.71075 1.7766656024639427 1.7361346153846153 Q 1.790223294771635 1.7615192307692307 1.812723294771635 1.7762307692307693 Q 1.8352232947716351 1.7909423076923077 1.8629156024639428 1.7909423076923077 Q 1.8906079101562505 1.7909423076923077 1.913396371694712 1.7759423076923078 Q 1.9361848332331735 1.7609423076923076 1.9497425255408658 1.7352692307692308 Q 1.9633002178485581 1.709596153846154 1.9633002178485581 1.6784423076923076 Q 1.9633002178485581 1.6472884615384615 1.9497425255408658 1.6219038461538462 Q 1.9361848332331735 1.5965192307692309 1.913396371694712 1.5815192307692307 Q 1.8906079101562505 1.5665192307692308 1.8629156024639428 1.5665192307692308 Q 1.8352232947716351 1.5665192307692308 1.812723294771635 1.5818076923076922 Q 1.790223294771635 1.5970961538461539 1.7766656024639427 1.6224807692307692 Q 1.7631079101562503 1.6478653846153846 1.7631079101562503 1.679596153846154 M 2.236184269831731 1.5722884615384616 Q 2.198107346754808 1.5728653846153846 2.1689727313701925 1.5916153846153847 Q 2.1398381159855773 1.6103653846153847 2.1277227313701927 1.64325 L 2.1277227313701927 1.8290192307692308 L 2.0769535006009616 1.8290192307692308 L 2.0769535006009616 1.5278653846153847 L 2.124261192908654 1.5278653846153847 L 2.124261192908654 1.597673076923077 Q 2.1398381159855773 1.5665192307692308 2.165511192908654 1.5471923076923078 Q 2.191184269831731 1.5278653846153847 2.2194535006009617 1.5255576923076923 Q 2.2252227313701924 1.5255576923076923 2.229261192908654 1.5255576923076923 Q 2.2332996544471158 1.5255576923076923 2.236184269831731 1.5261346153846154 L 2.236184269831731 1.5722884615384616 M 2.442132004957933 1.8140192307692309 Q 2.4357858511117794 1.8169038461538463 2.424824312650241 1.8215192307692307 Q 2.4138627741887024 1.8261346153846154 2.3994396972656253 1.8295961538461538 Q 2.3850166203425482 1.8330576923076922 2.368862774188702 1.8330576923076922 Q 2.3504012357271638 1.8330576923076922 2.3348243126502406 1.826423076923077 Q 2.3192473895733174 1.8197884615384616 2.3100166203425485 1.8056538461538463 Q 2.300785851111779 1.7915192307692307 2.300785851111779 1.770173076923077 L 2.300785851111779 1.567673076923077 L 2.259824312650241 1.567673076923077 L 2.259824312650241 1.5278653846153847 L 2.300785851111779 1.5278653846153847 L 2.300785851111779 1.4274807692307692 L 2.35155508188101 1.4274807692307692 L 2.35155508188101 1.5278653846153847 L 2.4190550818810097 1.5278653846153847 L 2.4190550818810097 1.567673076923077 L 2.35155508188101 1.567673076923077 L 2.35155508188101 1.7545961538461539 Q 2.352708928034856 1.77075 2.3625166203425483 1.7785384615384616 Q 2.3723243126502407 1.7863269230769232 2.3855935434194713 1.7863269230769232 Q 2.4005935434194714 1.7863269230769232 2.4132858511117794 1.7811346153846155 Q 2.425978158804087 1.7759423076923078 2.430016620342548 1.7736346153846154 L 2.442132004957933 1.8140192307692309 M 2.505587627704327 1.8290192307692308 L 2.505587627704327 1.567673076923077 L 2.4646260892427887 1.567673076923077 L 2.4646260892427887 1.5278653846153847 L 2.505587627704327 1.5278653846153847 L 2.505587627704327 1.5215192307692307 Q 2.505587627704327 1.4845961538461538 2.516837627704327 1.4577692307692307 Q 2.528087627704327 1.4309423076923076 2.548856858473558 1.4165192307692307 Q 2.5696260892427887 1.4020961538461538 2.5978953200120194 1.4020961538461538 Q 2.6157799353966347 1.4020961538461538 2.6330876277043274 1.407 Q 2.6503953200120196 1.4119038461538462 2.6642414738581732 1.4205576923076924 L 2.6515491661658657 1.4580576923076922 Q 2.6434722430889424 1.4522884615384615 2.6316453200120193 1.448826923076923 Q 2.6198183969350963 1.4453653846153847 2.608279935396635 1.4453653846153847 Q 2.5834722430889423 1.4453653846153847 2.56991455078125 1.4646923076923077 Q 2.556356858473558 1.4840192307692308 2.556356858473558 1.5197884615384616 L 2.556356858473558 1.5278653846153847 L 2.6365491661658655 1.5278653846153847 L 2.6365491661658655 1.567673076923077 L 2.556356858473558 1.567673076923077 L 2.556356858473558 1.8290192307692308 L 2.505587627704327 1.8290192307692308 M 2.8119301194411057 1.8347884615384615 Q 2.7778916579026443 1.8347884615384615 2.7501993502103366 1.8223846153846155 Q 2.722507042518029 1.8099807692307692 2.702314734825721 1.7883461538461538 Q 2.6821224271334136 1.7667115384615384 2.671160888671875 1.7384423076923077 Q 2.6601993502103367 1.710173076923077 2.6601993502103367 1.6790192307692307 Q 2.6601993502103367 1.6472884615384615 2.671160888671875 1.6190192307692308 Q 2.6821224271334136 1.5907499999999999 2.702314734825721 1.5691153846153847 Q 2.722507042518029 1.5474807692307693 2.750487811748798 1.535076923076923 Q 2.7784685809795673 1.522673076923077 2.8125070425180287 1.522673076923077 Q 2.8459685809795676 1.522673076923077 2.873660888671875 1.535076923076923 Q 2.901353196364183 1.5474807692307693 2.921833965594952 1.5691153846153847 Q 2.9423147348257213 1.5907499999999999 2.9532762732872597 1.6190192307692308 Q 2.964237811748798 1.6472884615384615 2.964237811748798 1.6790192307692307 Q 2.964237811748798 1.710173076923077 2.9532762732872597 1.7384423076923077 Q 2.9423147348257213 1.7667115384615384 2.9221224271334134 1.7883461538461538 Q 2.901930119441106 1.8099807692307692 2.873949350210337 1.8223846153846155 Q 2.8459685809795676 1.8347884615384615 2.8119301194411057 1.8347884615384615 M 2.7121224271334134 1.679596153846154 Q 2.7121224271334134 1.71075 2.725680119441106 1.7361346153846153 Q 2.739237811748798 1.7615192307692307 2.761737811748798 1.7762307692307693 Q 2.784237811748798 1.7909423076923077 2.8119301194411057 1.7909423076923077 Q 2.8396224271334134 1.7909423076923077 2.8624108886718753 1.7759423076923078 Q 2.885199350210337 1.7609423076923076 2.898757042518029 1.7352692307692308 Q 2.9123147348257215 1.709596153846154 2.9123147348257215 1.6784423076923076 Q 2.9123147348257215 1.6472884615384615 2.898757042518029 1.6219038461538462 Q 2.885199350210337 1.5965192307692309 2.8624108886718753 1.5815192307692307 Q 2.8396224271334134 1.5665192307692308 2.8119301194411057 1.5665192307692308 Q 2.784237811748798 1.5665192307692308 2.761737811748798 1.5818076923076922 Q 2.739237811748798 1.5970961538461539 2.725680119441106 1.6224807692307692 Q 2.7121224271334134 1.6478653846153846 2.7121224271334134 1.679596153846154 M 3.0271218637319715 1.4078653846153846 L 3.077891094501202 1.4078653846153846 L 3.077891094501202 1.7511346153846155 Q 3.077891094501202 1.7759423076923078 3.084814171424279 1.7817115384615385 Q 3.0917372483473557 1.7874807692307693 3.101544940655048 1.7874807692307693 Q 3.1136603252704327 1.7874807692307693 3.124621863731971 1.7848846153846154 Q 3.1355834021935096 1.7822884615384615 3.14308340219351 1.7794038461538462 L 3.1511603252704328 1.8209423076923077 Q 3.138468017578125 1.8261346153846154 3.121160325270433 1.8295961538461538 Q 3.1038526329627407 1.8330576923076922 3.0905834021935097 1.8330576923076922 Q 3.061160325270433 1.8330576923076922 3.044141094501202 1.816326923076923 Q 3.0271218637319715 1.7995961538461538 3.0271218637319715 1.7695961538461538 L 3.0271218637319715 1.4078653846153846 M 3.1909742149939904 1.8290192307692308 L 3.1909742149939904 1.5278653846153847 L 3.2417434457632215 1.5278653846153847 L 3.2417434457632215 1.8290192307692308 L 3.1909742149939904 1.8290192307692308 M 3.1909742149939904 1.471326923076923 L 3.1909742149939904 1.4078653846153846 L 3.2417434457632215 1.4078653846153846 L 3.2417434457632215 1.471326923076923 L 3.1909742149939904 1.471326923076923 M 3.4551937161959136 1.8347884615384615 Q 3.421155254657452 1.8347884615384615 3.3934629469651445 1.8223846153846155 Q 3.365770639272837 1.8099807692307692 3.345578331580529 1.7883461538461538 Q 3.3253860238882216 1.7667115384615384 3.314424485426683 1.7384423076923077 Q 3.3034629469651446 1.710173076923077 3.3034629469651446 1.6790192307692307 Q 3.3034629469651446 1.6472884615384615 3.314424485426683 1.6190192307692308 Q 3.3253860238882216 1.5907499999999999 3.345578331580529 1.5691153846153847 Q 3.365770639272837 1.5474807692307693 3.393751408503606 1.535076923076923 Q 3.421732177734375 1.522673076923077 3.4557706392728367 1.522673076923077 Q 3.489232177734375 1.522673076923077 3.5169244854266832 1.535076923076923 Q 3.5446167931189905 1.5474807692307693 3.56509756234976 1.5691153846153847 Q 3.585578331580529 1.5907499999999999 3.5965398700420677 1.6190192307692308 Q 3.607501408503606 1.6472884615384615 3.607501408503606 1.6790192307692307 Q 3.607501408503606 1.710173076923077 3.5965398700420677 1.7384423076923077 Q 3.585578331580529 1.7667115384615384 3.5653860238882213 1.7883461538461538 Q 3.545193716195914 1.8099807692307692 3.5172129469651447 1.8223846153846155 Q 3.489232177734375 1.8347884615384615 3.4551937161959136 1.8347884615384615 M 3.3553860238882214 1.679596153846154 Q 3.3553860238882214 1.71075 3.368943716195914 1.7361346153846153 Q 3.382501408503606 1.7615192307692307 3.405001408503606 1.7762307692307693 Q 3.427501408503606 1.7909423076923077 3.4551937161959136 1.7909423076923077 Q 3.4828860238882213 1.7909423076923077 3.505674485426683 1.7759423076923078 Q 3.5284629469651447 1.7609423076923076 3.542020639272837 1.7352692307692308 Q 3.555578331580529 1.709596153846154 3.555578331580529 1.6784423076923076 Q 3.555578331580529 1.6472884615384615 3.542020639272837 1.6219038461538462 Q 3.5284629469651447 1.5965192307692309 3.505674485426683 1.5815192307692307 Q 3.4828860238882213 1.5665192307692308 3.4551937161959136 1.5665192307692308 Q 3.427501408503606 1.5665192307692308 3.405001408503606 1.5818076923076922 Q 3.382501408503606 1.5970961538461539 3.368943716195914 1.6224807692307692 Q 3.3553860238882214 1.6478653846153846 3.3553860238882214 1.679596153846154" fill="#769687" fill-rule="nonzero"></path></g></g><defs><clipPath id="SvgjsClipPath11292"><path d=" M -4.236583105408268 -1.0037819373195185 h 3.836583105408268 v 3.836583105408268 h -3.836583105408268 Z"></path></clipPath><clipPath id="SvgjsClipPath11290fd59f088-3693-4061-969b-e59ba2d82301"><path d=" M -4.236583105408268 -1.0037819373195185 L -0.40000000000000036 -1.0037819373195185 L -0.40000000000000036 2.8328011680887495 L -4.236583105408268 2.8328011680887495 Z"></path></clipPath></defs></svg>